<?xml version="1.0" standalone="no"?><!DOCTYPE svg PUBLIC "-//W3C//DTD SVG 1.1//EN" "http://www.w3.org/Graphics/SVG/1.1/DTD/svg11.dtd"><svg t="1514128519111" class="icon" style="" viewBox="0 0 1024 1024" version="1.1" xmlns="http://www.w3.org/2000/svg" p-id="2833" xmlns:xlink="http://www.w3.org/1999/xlink" width="200" height="200"><defs><style type="text/css"></style></defs><path d="M512 512c-35.4 0-64-28.6-64-64L448 128c0-35.4 28.6-64 64-64s64 28.6 64 64l0 320C576 483.4 547.4 512 512 512z" p-id="2834" fill="#ffffff"></path><path d="M758 137.6 758 137.6c-10-6-21.6-9.6-34-9.6-35.4 0-64 28.6-64 64 0 12.4 3.6 24 9.6 33.8 4 6.4 9.2 12.2 15.2 16.8 2.4 1.8 4.8 3.4 7.4 5 16.2 11.2 31.6 23.8 46 38.2C798.8 346.2 832 426.6 832 512c0 85.4-33.2 165.8-93.8 226.2C677.8 798.8 597.4 832 512 832c-85.4 0-165.8-33.2-226.2-93.8C225.2 677.8 192 597.4 192 512c0-85.4 33.2-165.8 93.8-226.2 14.2-14.2 29.6-27 45.8-38 2.8-1.6 5.2-3.2 7.8-5.2 6-4.6 11-10.2 15-16.6 6.2-9.8 9.6-21.4 9.6-33.8 0-35.4-28.6-64-64-64-12.4 0-24 3.6-33.8 9.6l-0.2-0.2C144.4 217.6 64 355.4 64 512c0 247.4 200.6 448 448 448 247.4 0 448-200.6 448-448C960 355.4 879.6 217.6 758 137.6z" p-id="2835" fill="#ffffff"></path></svg>