<?xml version="1.0" standalone="no"?><!DOCTYPE svg PUBLIC "-//W3C//DTD SVG 1.1//EN" "http://www.w3.org/Graphics/SVG/1.1/DTD/svg11.dtd"><svg t="1514041057483" class="icon" style="" viewBox="0 0 1024 1024" version="1.1" xmlns="http://www.w3.org/2000/svg" p-id="4061" xmlns:xlink="http://www.w3.org/1999/xlink" width="200" height="200"><defs><style type="text/css"></style></defs><path d="M138.405 210.962h738.619c14.588 0 26.413-11.825 26.413-26.413 0-14.586-11.825-26.412-26.413-26.412H138.405c-14.587 0-26.412 11.825-26.412 26.412 0 14.588 11.825 26.413 26.412 26.413zM376.115 348.781v443.251c0 14.588 11.825 26.413 26.413 26.413 14.586 0 26.412-11.825 26.412-26.413V348.781c0-14.586-11.825-26.412-26.412-26.412-14.588 0-26.413 11.825-26.413 26.412zM587.414 346.906v445.126c0 14.588 11.825 26.413 26.412 26.413 14.588 0 26.413-11.825 26.413-26.413V346.906c0-14.588-11.825-26.413-26.413-26.413-14.587 0-26.412 11.826-26.412 26.413zM349.703 131.725h294.892c14.588 0 26.413-11.825 26.413-26.412 0-14.588-11.825-26.413-26.413-26.413H349.703c-14.588 0-26.413 11.825-26.413 26.413 0.001 14.587 11.826 26.412 26.413 26.412z" p-id="4062" fill="#515151"></path><path d="M772.3 210.962v664.374c0 12.327-10.018 22.345-22.346 22.345H266.399c-12.328 0-22.346-10.018-22.346-22.345V210.962c0-14.588-11.825-26.413-26.412-26.413-14.588 0-26.413 11.825-26.413 26.413v664.374c0 41.501 33.668 75.169 75.17 75.169h483.555c41.502 0 75.17-33.668 75.17-75.169V210.962c0-14.588-11.825-26.413-26.413-26.413-14.585 0-26.41 11.826-26.41 26.413z" p-id="4063" fill="#515151"></path></svg>