<?xml version="1.0" standalone="no"?><!DOCTYPE svg PUBLIC "-//W3C//DTD SVG 1.1//EN" "http://www.w3.org/Graphics/SVG/1.1/DTD/svg11.dtd"><svg t="1514040064774" class="icon" style="" viewBox="0 0 1024 1024" version="1.1" xmlns="http://www.w3.org/2000/svg" p-id="1962" xmlns:xlink="http://www.w3.org/1999/xlink" width="200" height="200"><defs><style type="text/css"></style></defs><path d="M668.565848 114.821095l0-8.019651L668.565848 90.783633c0-26.095331-21.153786-47.249117-47.249117-47.249117l-218.633463 0c-26.095331 0-47.249117 21.153786-47.249117 47.249117l0 16.018835 0 8.019651L201.954595 114.822119l0 71.631434 620.092857 0 0-71.631434L668.565848 114.822119z" p-id="1963" fill="#8a8a8a"></path><path d="M359.018793 357.532953l71.631434 0 0 365.0563-71.631434 0 0-365.0563Z" p-id="1964" fill="#8a8a8a"></path><path d="M476.184283 357.532953l71.631434 0 0 365.0563-71.631434 0 0-365.0563Z" p-id="1965" fill="#8a8a8a"></path><path d="M593.350796 357.532953l71.631434 0 0 365.0563-71.631434 0 0-365.0563Z" p-id="1966" fill="#8a8a8a"></path><path d="M775.501346 305.937854l0-93.501534-527.002692 0 0 93.492324c-0.00614 0.423649-0.030699 0.843204-0.030699 1.2689L248.467955 772.926708c0 45.379537 35.660174 82.298378 79.491449 82.298378l368.082216 0c43.831274 0 79.491449-36.918841 79.491449-82.298378L775.533069 307.196521C775.533069 306.774919 775.507486 306.358433 775.501346 305.937854zM703.901635 772.926708c0 6.28617-4.142343 10.666944-7.860015 10.666944l-368.082216 0c-3.717671 0-7.860015-4.380774-7.860015-10.666944L320.099389 307.196521c0-6.28617 4.142343-10.666944 7.860015-10.666944l368.082216 0c3.717671 0 7.860015 4.380774 7.860015 10.666944L703.901635 772.926708z" p-id="1967" fill="#8a8a8a"></path></svg>